<svg width="161" height="161" viewBox="0 0 161 161" fill="none" xmlns="http://www.w3.org/2000/svg">
<g id="Group 33">
<path id="Vector" d="M140.875 111.505V49.4951C140.87 48.5994 140.629 47.7208 140.177 46.9479C139.724 46.175 139.075 45.5351 138.296 45.0928L82.9527 13.9619C82.207 13.5314 81.3611 13.3047 80.5 13.3047C79.6389 13.3047 78.793 13.5314 78.0473 13.9619L22.7035 45.0928C21.9246 45.5351 21.2761 46.175 20.8234 46.9479C20.3707 47.7208 20.1298 48.5994 20.125 49.4951V111.505C20.1298 112.401 20.3707 113.28 20.8234 114.053C21.2761 114.825 21.9246 115.465 22.7035 115.908L78.0473 147.038C78.793 147.469 79.6389 147.696 80.5 147.696C81.3611 147.696 82.207 147.469 82.9527 147.038L138.296 115.908C139.075 115.465 139.724 114.825 140.177 114.053C140.629 113.28 140.87 112.401 140.875 111.505Z" stroke="white" stroke-opacity="0.6" stroke-width="6" stroke-linecap="round" stroke-linejoin="round"/>
<path id="Vector_2" d="M111.316 95.9082V63.2051L50.3125 29.5586" stroke="white" stroke-opacity="0.6" stroke-width="6" stroke-linecap="round" stroke-linejoin="round"/>
<path id="Vector_3" d="M140.183 46.9165L81.066 80.5001L20.8168 46.9165" stroke="white" stroke-opacity="0.6" stroke-width="6" stroke-linecap="round" stroke-linejoin="round"/>
<path id="Vector_4" d="M81.066 80.5L80.5 147.667" stroke="white" stroke-opacity="0.6" stroke-width="6" stroke-linecap="round" stroke-linejoin="round"/>
</g>
</svg>
