<svg width="10" height="14" viewBox="0 0 10 14" fill="none" xmlns="http://www.w3.org/2000/svg">
<path id="Vector" d="M0 0.65625C0 0.293945 0.279948 0 0.625 0H9.375C9.72135 0 10 0.293945 10 0.65625C10 1.01855 9.72135 1.3125 9.375 1.3125H9.16667V1.83148C9.16667 2.93398 8.72656 3.96758 8.00781 4.77148L5.88281 7L8.00781 9.22852C8.72656 10.0078 9.16667 11.066 9.16667 12.168V12.6875H9.375C9.72135 12.6875 10 12.9801 10 13.3438C10 13.7074 9.72135 14 9.375 14H0.625C0.279948 14 0 13.7074 0 13.3438C0 12.9801 0.279948 12.6875 0.625 12.6875H0.833333V12.168C0.833333 11.066 1.25026 10.0078 1.99271 9.22852L4.11719 7L1.99271 4.77148C1.25026 3.96758 0.833333 2.93398 0.833333 1.83148V1.3125H0.625C0.279948 1.3125 0 1.01855 0 0.65625ZM2.59844 10.5H7.40104C7.31771 10.3797 7.22396 10.2648 7.1224 10.1582L5 7.92695L2.8776 10.1582C2.77604 10.2648 2.65885 10.3797 2.59844 10.5ZM7.40104 3.5C7.71094 3.01875 7.91667 2.43441 7.91667 1.83148V1.3125H2.08333V1.83148C2.08333 2.43441 2.26562 3.01875 2.59844 3.5H7.40104Z" fill="#B8B8B8"/>
</svg>
