<svg width="7" height="14" viewBox="0 0 7 14" fill="none" xmlns="http://www.w3.org/2000/svg">
<path id="Vector" d="M2.1875 0.4375V0.875H1.75C1.63397 0.875 1.52269 0.921093 1.44064 1.00314C1.35859 1.08519 1.3125 1.19647 1.3125 1.3125V1.75H0.875C0.642936 1.75 0.420376 1.84219 0.256282 2.00628C0.0921874 2.17038 0 2.39294 0 2.625L0 13.125C0 13.3571 0.0921874 13.5796 0.256282 13.7437C0.420376 13.9078 0.642936 14 0.875 14H6.125C6.35706 14 6.57962 13.9078 6.74372 13.7437C6.90781 13.5796 7 13.3571 7 13.125L7 2.625C7 2.39294 6.90781 2.17038 6.74372 2.00628C6.57962 1.84219 6.35706 1.75 6.125 1.75H5.6875V1.3125C5.6875 1.19647 5.64141 1.08519 5.55936 1.00314C5.47731 0.921093 5.36603 0.875 5.25 0.875H4.8125V0.4375C4.8125 0.321468 4.76641 0.210188 4.68436 0.12814C4.60231 0.0460933 4.49103 0 4.375 0H2.625C2.50897 0 2.39769 0.0460933 2.31564 0.12814C2.23359 0.210188 2.1875 0.321468 2.1875 0.4375ZM1.75 2.625H6.125V6.125L0.875 6.125L0.875 2.625H1.75Z" fill="#B8B8B8"/>
</svg>
