<svg width="26" height="27" viewBox="0 0 26 27" fill="none" xmlns="http://www.w3.org/2000/svg">
<g id="Group">
<path id="Vector" d="M0 0.312012V20.1041H7.29181V26.875L14.0206 20.1041H26V0.312012H0ZM14.0206 17.4999H12.9419L12.1794 18.2624L9.85436 20.5874V20.1041V17.4999H7.25015H2.56255V2.91623H23.438V17.4999H14.0206Z" fill="white"/>
<path id="Vector_2" d="M6.72878 12.2915C7.8794 12.2915 8.81216 11.3587 8.81216 10.2081C8.81216 9.05751 7.8794 8.12476 6.72878 8.12476C5.57817 8.12476 4.64541 9.05751 4.64541 10.2081C4.64541 11.3587 5.57817 12.2915 6.72878 12.2915Z" fill="white"/>
<path id="Vector_3" d="M12.9789 12.2915C14.1295 12.2915 15.0623 11.3587 15.0623 10.2081C15.0623 9.05751 14.1295 8.12476 12.9789 8.12476C11.8283 8.12476 10.8955 9.05751 10.8955 10.2081C10.8955 11.3587 11.8283 12.2915 12.9789 12.2915Z" fill="white"/>
<path id="Vector_4" d="M19.229 12.2915C20.3796 12.2915 21.3124 11.3587 21.3124 10.2081C21.3124 9.05751 20.3796 8.12476 19.229 8.12476C18.0784 8.12476 17.1456 9.05751 17.1456 10.2081C17.1456 11.3587 18.0784 12.2915 19.229 12.2915Z" fill="white"/>
</g>
</svg>
