<svg width="25" height="26" viewBox="0 0 25 26" fill="none" xmlns="http://www.w3.org/2000/svg">
<g id="Layer 2">
<g id="Interface-Solid">
<g id="interface-solid-multimedia-refresh-button-1">
<path id="Vector" d="M2.64852 8.61078H7.58197C7.85371 8.61078 8.11431 8.50283 8.30646 8.31068C8.49861 8.11854 8.60656 7.85793 8.60656 7.58619C8.60656 7.31445 8.49861 7.05384 8.30646 6.8617C8.11431 6.66955 7.85371 6.5616 7.58197 6.5616H4.39953C5.42775 5.12962 6.79013 3.97042 8.36827 3.18475C9.9464 2.39908 11.6925 2.01071 13.4549 2.0534C15.4888 2.05349 17.4786 2.64678 19.1804 3.76058C20.8823 4.87438 22.2223 6.46035 23.0364 8.32421C23.1461 8.57207 23.3495 8.76639 23.6021 8.86464C23.8547 8.9629 24.1359 8.95709 24.3842 8.84849C24.6326 8.73989 24.8278 8.53733 24.9271 8.28516C25.0264 8.03299 25.0218 7.75173 24.9143 7.50294C23.9405 5.27398 22.3377 3.37741 20.3023 2.04552C18.267 0.713623 15.8873 0.00423088 13.4549 0.00422275C11.1412 -0.0554898 8.8553 0.519059 6.8448 1.66563C4.83429 2.81219 3.17586 4.48706 2.04918 6.50877V1.02881C2.04918 0.757075 1.94123 0.496466 1.74908 0.304318C1.55694 0.11217 1.29633 0.00422275 1.02459 0.00422275C0.752852 0.00422275 0.492243 0.11217 0.300096 0.304318C0.107948 0.496466 0 0.757075 0 1.02881L0 7.58619C0.000184555 7.85787 0.108191 8.11837 0.300299 8.31048C0.492407 8.50259 0.752909 8.6106 1.02459 8.61078H2.64852Z" fill="white"/>
<path id="Vector_2" d="M23.9754 16.3978H17.418C17.1463 16.3978 16.8857 16.5057 16.6935 16.6979C16.5014 16.89 16.3934 17.1506 16.3934 17.4224C16.3934 17.6941 16.5014 17.9547 16.6935 18.1469C16.8857 18.339 17.1463 18.447 17.418 18.447H20.6555C19.8349 19.8693 18.6418 21.0408 17.2047 21.8352C15.7675 22.6296 14.1409 23.0168 12.5 22.9552C10.4661 22.9551 8.47635 22.3618 6.77451 21.248C5.07267 20.1342 3.73262 18.5482 2.91849 16.6843C2.8093 16.4357 2.60591 16.2406 2.353 16.1419C2.10008 16.0431 1.81831 16.0487 1.56954 16.1575C1.32077 16.2663 1.12535 16.4694 1.02618 16.7222C0.927014 16.9749 0.932206 17.2567 1.04062 17.5057C2.01447 19.7346 3.61724 21.6312 5.6526 22.9631C7.68797 24.2949 10.0676 25.0043 12.5 25.0043C14.6859 25.0648 16.8414 24.4821 18.6992 23.3287C20.557 22.1753 22.0354 20.5019 22.9508 18.516V23.9797C22.9508 24.2515 23.0588 24.5121 23.2509 24.7042C23.4431 24.8964 23.7037 25.0043 23.9754 25.0043C24.2472 25.0043 24.5078 24.8964 24.6999 24.7042C24.8921 24.5121 25 24.2515 25 23.9797V17.4224C25 17.1506 24.892 16.8901 24.6999 16.6979C24.5077 16.5058 24.2471 16.3978 23.9754 16.3978Z" fill="white"/>
</g>
</g>
</g>
</svg>
