<?xml version="1.0" encoding="UTF-8"?>
<!DOCTYPE svg PUBLIC "-//W3C//DTD SVG 1.1//EN" "http://www.w3.org/Graphics/SVG/1.1/DTD/svg11.dtd">
<!-- Creator: CorelDRAW 2021 (64-Bit) -->
<svg xmlns="http://www.w3.org/2000/svg" xml:space="preserve" width="922.765mm" height="163.031mm" version="1.1" style="shape-rendering:geometricPrecision; text-rendering:geometricPrecision; image-rendering:optimizeQuality; fill-rule:evenodd; clip-rule:evenodd"
viewBox="0 0 91556.88 16176"
 xmlns:xlink="http://www.w3.org/1999/xlink"
 xmlns:xodm="http://www.corel.com/coreldraw/odm/2003">
 <defs>
  <style type="text/css">
   <![CDATA[
    .str0 {stroke:#2B2A29;stroke-width:19.84;stroke-miterlimit:22.9256}
    .fil3 {fill:none}
    .fil1 {fill:#FEFEFE}
    .fil4 {fill:#2B2A29}
    .fil0 {fill:#2B2A29}
    .fil2 {fill:#232120}
    .fil6 {fill:#0060AA}
    .fil5 {fill:#61E615}
   ]]>
  </style>
 </defs>
 <g id="Слой_x0020_1">
  <metadata id="CorelCorpID_0Corel-Layer"/>
  <g id="_2253687411824">
   <g>
    <path class="fil0 str0" d="M8088 9.92c4461.4,0 8078.07,3616.68 8078.07,8078.08 0,4461.4 -3616.68,8078.07 -8078.07,8078.07 -4461.4,0 -8078.08,-3616.68 -8078.08,-8078.07 0,-4461.4 3616.68,-8078.08 8078.08,-8078.08z"/>
    <path class="fil1" d="M7107.75 2226.63c514.49,-807.05 971.17,-1093.34 1566.02,-160.66 736.26,1223.7 1433.75,2403.75 2112.73,3663.86 538.68,721.15 1241.03,981.49 1979.2,1511.31 938.22,689.82 891.77,1104.47 84.13,1749.31 -310.77,337.69 66.14,755.59 248.98,1210.28l297.8 745.85c313.28,674.11 100.42,1109.79 -648.53,1201.73 -1913.73,14.01 -3807.34,71.82 -5719.82,126.3 -584.53,81.62 -356.78,447.03 -1099.38,388.64l-2534.09 -354.86c-691.81,-126.81 -934.16,-448.51 -618.52,-1130.79l622.65 -1118.64c126.08,-368.72 -181.67,-356.7 -220.16,-886.74 346.97,-1049.7 622.58,-1383.98 1409.49,-2162.14 531.29,-392.02 710.17,-427.04 945.22,-1036.41 531.15,-1427.34 828.13,-2378.53 1574.28,-3747.03z"/>
    <path class="fil2" d="M6020.72 7316.04c1918.45,-1108.78 3142.48,-1149.84 5086.54,-412.61l764.48 457.8c1150.84,765.05 513.52,1130.75 -389.6,1732.71 -1949.82,1188.45 -2478.43,1425.83 -4587.48,1040.2 -868.06,-261.47 -1669.36,-639.69 -2522.97,-917.62 -316.05,-194.97 -430.91,-314.3 -75.33,-578.57 567.05,-514.31 1095.64,-882.89 1724.35,-1321.92zm-270.13 901.6c-287.96,785.25 22.94,965.89 735.65,1328.58 830.19,422.46 1279.53,433.3 2180.44,231.34 863.63,-193.6 1394.58,-378.86 1432.45,-1293.79 39.61,-956.63 -527.73,-1420.44 -1443.04,-1589.87 -965,-178.65 -2547.23,346.76 -2905.5,1323.75zm2926.69 -146.9c179.44,372.81 76.19,823.97 -247.18,1081.81 -446.06,355.67 -1108.8,204.16 -1356.53,-309.62 -247.43,-513.15 48.61,-1126.87 603.82,-1253.6 403.63,-92.12 820.28,108.26 999.88,481.41zm3885.38 943.16c856.99,-935.46 1122.9,-869.06 -281.9,-1877.66 -751.17,-517.93 -1136.33,-506.74 -1670.2,-1317.04 -677.79,-1257.61 -1374.8,-2434.96 -2109.24,-3656.39 -507.44,-796.09 -806.71,-492.51 -1215.87,151.08 -742.59,1361.12 -1032.28,2294.62 -1561.91,3715.06 -152.33,379.24 -167.13,403.4 -436.09,711.1 -1026.74,755.18 -1511.85,1255.6 -1915.03,2474.35 32.28,407.74 241.29,317.95 277.19,768.37 -213.54,431.99 -477.09,860.27 -703.28,1295.96 -255.3,548.37 -70.14,733.91 475.52,833.76l617.94 92.51 1912.68 261.89c200.55,15.8 257.01,32.5 436.68,-64.98 226.81,-249.19 324.86,-275.55 649.13,-324.86 1912.49,-54.87 3786.1,-112.39 5700.37,-126.3 601.24,-73.71 736.14,-368.85 483.17,-911.96l-312.5 -780.08c-183.54,-457.56 -447.28,-790.69 -346.64,-1244.83zm-7833.15 831.46c526.72,218.05 1046.59,442.05 1576.64,653.49 1368.04,362.99 1953.12,451.26 3399.26,160.9 724.75,-279.08 1141.52,-489.74 1782.61,-919.73 375.28,-147.07 453.97,-144.69 700.92,180.55 152.01,324.38 271.13,629.97 401.38,965.7 68.28,352.94 6.83,444.24 -342.52,536.02 -2729.38,31.79 -5496.44,69.13 -8223.91,50.91 -334.08,-38.53 -577.65,-89.35 -414.32,-467.17 170.91,-343.23 356.79,-625.9 573.21,-940.09 188.04,-244.65 217.86,-357.28 546.73,-220.58zm3486.95 -4111.55l903.97 -244.36c411.35,-121.99 404.56,-164.33 707.99,202.81 128.57,324.61 -109.71,316.12 -364.88,290.02 -464.09,-0.42 -758.72,-2.06 -1210.58,64.15 -392.62,95.5 -461.05,-202.59 -36.49,-312.61zm-256 -2339.12c100.79,-258.11 307.14,-402.96 460.21,-84.58 237.81,421.9 476.39,842.47 712.7,1265.37 55.08,146.94 -32.36,187.38 -151.25,253.17 -584.67,135.66 -979.45,269.47 -1533.68,500.95 -373.2,172.47 -333.63,-179.69 -197.74,-397.89 251.87,-509.66 478.01,-1018.19 709.75,-1537.03z"/>
    <path class="fil3" d="M8088 789.76c4030.72,0 7298.23,3267.52 7298.23,7298.24 0,4030.71 -3267.51,7298.23 -7298.23,7298.23 -4030.72,0 -7298.24,-3267.52 -7298.24,-7298.23 0,-4030.72 3267.52,-7298.24 7298.24,-7298.24z"/>
    <path class="fil1" d="M8088 260.86c4322.83,0 7827.13,3504.31 7827.13,7827.14 0,4322.83 -3504.3,7827.13 -7827.13,7827.13 -4322.83,0 -7827.13,-3504.31 -7827.13,-7827.13 0,-4322.83 3504.3,-7827.14 7827.13,-7827.14zm0 528.9c4030.72,0 7298.23,3267.52 7298.23,7298.24 0,4030.71 -3267.51,7298.23 -7298.23,7298.23 -4030.72,0 -7298.24,-3267.52 -7298.24,-7298.23 0,-4030.72 3267.52,-7298.24 7298.24,-7298.24z"/>
    <path class="fil2" d="M5533.44 5973.64c531.2,-1427.32 828.15,-2378.54 1574.3,-3746.99 514.49,-807.08 971.17,-1093.34 1566.02,-160.67 736.28,1223.66 1433.76,2403.75 2112.76,3663.84 538.64,721.16 1241.03,981.52 1979.19,1511.29 938.22,689.87 891.75,1104.51 84.08,1749.32 -310.77,337.7 66.14,755.58 249.01,1210.32l297.78 745.85c313.32,674.09 100.44,1109.76 -648.53,1201.7 -1913.71,13.99 -3807.34,71.81 -5719.81,126.31 -584.52,81.6 -356.77,447.06 -1099.37,388.66l-2534.06 -354.88c-691.82,-126.83 -934.22,-448.48 -618.54,-1130.78l622.61 -1118.62c126.13,-368.76 -181.63,-356.72 -220.13,-886.79 346.96,-1049.65 622.55,-1383.98 1409.49,-2162.13 531.31,-392.02 710.18,-427.04 945.19,-1036.42zm9852.79 2114.36c0,-4030.72 -3267.51,-7298.24 -7298.23,-7298.24 -4030.72,0 -7298.24,3267.52 -7298.24,7298.24 0,4030.71 3267.52,7298.23 7298.24,7298.23 4030.72,0 7298.23,-3267.52 7298.23,-7298.23z"/>
   </g>
   <g>
    <g>
     <path class="fil4" d="M40630.13 11667.88c288.91,-544.21 816.88,-948.24 1457.47,-1061.07 1255.99,-221.21 2409.84,746.56 2409.84,2022.03 0,995.76 -715.79,1849.28 -1696.57,2022.02 -455.6,80.24 -897.85,3.92 -1276.45,-186.82l0 1310.25 -21944.56 0 0 -1915.76 1094.77 0 0 -274.88 -1094.77 0 0 -1915.76 1094.77 0 0 -973.27 782.37 0 0 -5282.07 -782.37 0 0 -904.42 -1094.77 0 0 -1915.76 1094.77 0 0 -274.88 -1094.77 0 0 -1915.76 21944.56 0 0 1915.76 -1408.27 0 0 274.88 1408.27 0 0 1915.76 -1408.27 0 0 1843.26 -1865.66 0c1294.86,405.52 1967.33,1310.62 2173.06,2869.62l5.55 42.01 0 2118.9 -5.55 42.01c-10.74,81.36 -22.9,162.76 -36.75,243.96l243.33 0zm-4 1915.76l-1138.55 0c-103.99,101.96 -214.42,193.2 -330.31,274.88l1643.16 0c-64.98,-86.47 -123.35,-178.33 -174.29,-274.88zm-11170.91 274.88l1859.73 0 0 -274.88 -1529.41 0c-104,101.96 -214.42,193.2 -330.32,274.88zm2725.07 -11541.04l-2631.44 0c107,82.47 208.78,173.78 304.54,274.88l2022.34 0c95.77,-101.1 197.56,-192.41 304.57,-274.88zm3516.5 3839.37l0 -744.31 -274.88 0 0 744.31 274.88 0zm-5000.7 -1648.73c9.28,58.32 17.72,116.71 25.42,175.11l5.55 42.01 0 6656.66 -5.55 42.01c-10.74,81.36 -22.9,162.76 -36.75,243.96l630.19 0 0 -1912.12 1871.55 0c-1222.44,-355.25 -1962.37,-1228.09 -2178.95,-2869.61l-5.55 -42 0 -2118.92 5.55 -42.01c7.71,-58.4 16.15,-116.79 25.42,-175.1l-336.87 0zm4725.26 5442.19l0 744.3 274.88 0 0 -744.3 -274.88 0zm-9545.01 744.3l274.89 0 0 -5282.07 -274.89 0 0 5282.07z"/>
    </g>
    <g>
     <polygon class="fil5" points="20224.79,15129.35 20224.79,14503.45 40879.49,14503.45 40879.49,15129.35 "/>
     <polygon class="fil5" points="20224.79,1672.54 20224.79,1046.64 40879.49,1046.64 40879.49,1672.54 "/>
     <path class="fil5" d="M21319.56 13843.13l0 -904.42 -1094.77 0 0 -625.9 1094.77 0 0 -973.27 782.37 0 0 -6571.93 -782.37 0 0 -904.42 -1094.77 0 0 -625.9 1094.77 0 0 -973.27 6258.98 0c941.93,123.91 1572.53,421.22 1973.82,973.27l2624.37 0c401.29,-551.98 1031.83,-849.26 1973.8,-973.27l5320.69 0 0 973.27 1408.27 0 0 625.9 -1408.27 0 0 1843.26 -3129.49 0 0 -938.84 -1564.74 0 0 2034.17 1564.74 0 938.85 0c1590.96,209.44 2293.69,913.02 2503.59,2503.59l0 2034.16c-48.97,371.04 -124.78,693.78 -232.4,973.27l1327.72 0 0 625.9 -1677.5 0c-403.03,508 -1019.43,785.68 -1921.42,904.42l-5320.69 0 0 -904.42 -2459.93 0c-403.04,507.99 -1019.44,785.68 -1921.42,904.42l-6258.98 0zm8555.65 -9979.94c94.2,263.33 161.93,563.45 206.92,904.42l0 6571.93c-48.97,371.04 -124.75,693.81 -232.4,973.27l2110.16 0 0 -1912.12 2816.54 0 0 938.85 1564.74 0 0 -2034.16 -1564.74 0c-1847.13,0 -2873.77,-565.55 -3129.49,-2503.59l0 -2034.17c45.01,-340.99 112.72,-641.11 206.93,-904.42l-1978.66 0zm-4643.79 7476.35l1564.75 0 0 -6571.93 -1564.75 0 0 6571.93z"/>
     <path class="fil5" d="M43852.5 12628.83c0,682.84 -490.88,1268.39 -1163.51,1386.86 -861.22,151.68 -1653.04,-512.28 -1653.04,-1386.86 0,-682.18 491.56,-1268.51 1163.51,-1386.87 861.5,-151.73 1653.04,511.9 1653.04,1386.87z"/>
    </g>
    <g>
     <path class="fil4" d="M83234.12 2533.85c549.4,-704.08 1386.35,-1099.38 2570.54,-1245.44l39.32 -4.85 5712.9 0 0 5741.11 -4064.12 0 0 -1721.4 -444.04 0 0 5472.38 444.04 0 0 -1746.41 4064.12 0 0 5854.93 -5706.49 0 -33.04 -3.41c-1189.49,-122.85 -2029.17,-506.72 -2583.23,-1212.42l0 1215.83 -6144.81 0 0 -4108.52 866.96 0 0 -5472.38 -97.27 0 0 1907.3 -3294.43 0 0 3565.08 866.95 0 0 4108.52 -6491.64 0 0 -4108.52 866.96 0 0 -3565.08 -2662.39 0c-402.61,1569.03 -1396.36,2367.26 -3191.78,2603.65l-41.91 5.52 -1824.81 0 0 964.21 866.96 0 0 4108.52 -5971.42 0 0 -1276.82c-546.58,703.76 -1381.37,1104.72 -2564.68,1262.84l-42.53 5.69 -2860.1 0 -42.58 -5.7c-2056.64,-275.13 -3060.94,-1284.01 -3328.28,-3341.48l-5.38 -41.37 0 -6846.96 5.72 -42.63c274.55,-2049.5 1279.67,-3051.22 3330.54,-3317.11l41.29 -5.36 2857.48 0 41.25 5.34c1184.3,153.39 2019.77,552.15 2567.27,1256.3l0 -1253.34 6929.31 0 41.94 5.53c1179.14,155.36 2012.47,552.84 2559.67,1251.87l0 -1265.69 16721.71 0 0 1250.29zm-769.69 2769.41l-97.27 0 0 5472.38 97.27 0 0 -5472.38zm-24713.87 41.62l0 5439.05 97.89 0 0 -5439.05 -97.89 0zm-4584.28 5637.4l0 -5679.03 -444.05 0 0 5679.03 444.05 0zm9537.11 -4706.51l0 -964.21 -270.65 0 0 964.21 270.65 0z"/>
    </g>
    <g>
     <path class="fil6" d="M48782.87 11453.89l0 -6762.23c235.56,-1758.38 1014.7,-2535.05 2774.25,-2763.17l2774.26 0c1759.92,227.95 2538.63,1004.67 2774.25,2763.17l0 6762.23c-229.56,1766.48 -1008.27,2549.34 -2774.25,2785.34l-2774.26 0c-1765.54,-236.18 -2544.76,-1019.17 -2774.25,-2785.34zm5028.33 173.33l0 -6968.89 -1733.91 0 0 6968.89 1733.91 0z"/>
     <path class="fil6" d="M57626.42 14247.52l0 -2818.66 866.96 0 0 -6728.91 -866.96 0 0 -2763.17 6242.07 0c1762.52,232.22 2541.72,1011.86 2774.26,2774.26l0 1689.51c-232.53,1762.2 -1011.81,2542.21 -2774.26,2774.25l-2427.47 0 0 2254.07 866.96 0 0 2818.66 -4681.56 0zm5721.9 -7326.82l0 -2254.07 -1560.52 0 0 2254.07 1560.52 0z"/>
     <polygon class="fil6" points="77214.07,1928.48 77214.07,6565.63 74786.59,6565.63 74786.59,4658.33 73919.64,4658.33 73919.64,6565.63 73919.64,11420.57 74786.59,11420.57 74786.59,14239.23 69584.81,14239.23 69584.81,11420.57 70451.77,11420.57 70451.77,6565.63 70451.77,4658.33 69584.81,4658.33 69584.81,6565.63 67157.34,6565.63 67157.34,1928.48 "/>
     <polygon class="fil6" points="77734.24,1928.48 82589.19,1928.48 82589.19,4658.33 81722.23,4658.33 81722.23,11420.57 82589.19,11420.57 82589.19,14239.23 77734.24,14239.23 77734.24,11420.57 78601.2,11420.57 78601.2,4658.33 77734.24,4658.33 "/>
     <path class="fil6" d="M83109.36 4658.33c243.12,-1746.04 1025.11,-2514.1 2774.25,-2729.84l5028.34 0 0 4451.25 -2774.26 0 0 -1721.4 -1733.9 0 0 6762.24 1733.9 0 0 -1746.41 2774.26 0 0 4565.07 -5028.34 0c-1721.33,-177.79 -2500.6,-914.51 -2774.25,-2623.09l0 -6957.81z"/>
    </g>
   </g>
  </g>
 </g>
</svg>
