<svg width="100" height="100" viewBox="0 0 100 100" fill="none" xmlns="http://www.w3.org/2000/svg">
<g id="Group 34">
<circle id="Ellipse 2" cx="50" cy="50" r="50" fill="#015589"/>
<g id="Group 33">
<path id="Vector" d="M74.125 62.6325V38.3676C74.1231 38.0171 74.0288 37.6733 73.8517 37.3709C73.6746 37.0685 73.4208 36.8181 73.116 36.645L51.4598 24.4633C51.168 24.2949 50.8369 24.2062 50.5 24.2062C50.1631 24.2062 49.832 24.2949 49.5402 24.4633L27.884 36.645C27.5792 36.8181 27.3254 37.0685 27.1483 37.3709C26.9711 37.6733 26.8769 38.0171 26.875 38.3676V62.6325C26.8769 62.983 26.9711 63.3268 27.1483 63.6292C27.3254 63.9317 27.5792 64.1821 27.884 64.3551L49.5402 76.5368C49.832 76.7053 50.1631 76.794 50.5 76.794C50.8369 76.794 51.168 76.7053 51.4598 76.5368L73.116 64.3551C73.4208 64.1821 73.6746 63.9317 73.8517 63.6292C74.0288 63.3268 74.1231 62.983 74.125 62.6325Z" stroke="white" stroke-width="6" stroke-linecap="round" stroke-linejoin="round"/>
<path id="Vector_2" d="M62.5586 56.5293V43.7324L38.6875 30.5664" stroke="white" stroke-width="6" stroke-linecap="round" stroke-linejoin="round"/>
<path id="Vector_3" d="M73.8543 37.3586L50.7215 50.5L27.1457 37.3586" stroke="white" stroke-width="6" stroke-linecap="round" stroke-linejoin="round"/>
<path id="Vector_4" d="M50.7215 50.5L50.5 76.7828" stroke="white" stroke-width="6" stroke-linecap="round" stroke-linejoin="round"/>
</g>
</g>
</svg>
