<svg width="23" height="22" viewBox="0 0 23 22" fill="none" xmlns="http://www.w3.org/2000/svg">
<g id="Group 31">
<path id="XMLID_352_" d="M23 10.6154C23 11.592 22.2074 12.3847 21.2308 12.3847H7.07691C6.10029 12.3847 5.30768 11.592 5.30768 10.6154C5.30768 9.63881 6.10029 8.84619 7.07691 8.84619H21.2308C22.2074 8.84619 23 9.63881 23 10.6154Z" fill="white"/>
<path id="XMLID_354_" d="M23 1.76923C23 2.74585 22.2074 3.53846 21.2308 3.53846H7.07691C6.10029 3.53846 5.30768 2.74585 5.30768 1.76923C5.30768 0.792615 6.10029 0 7.07691 0H21.2308C22.2074 0 23 0.792615 23 1.76923Z" fill="white"/>
<path id="XMLID_356_" d="M23 19.4615C23 20.4381 22.2074 21.2307 21.2308 21.2307H7.07691C6.10029 21.2307 5.30768 20.4381 5.30768 19.4615C5.30768 18.4849 6.10029 17.6923 7.07691 17.6923H21.2308C22.2074 17.6923 23 18.4849 23 19.4615Z" fill="white"/>
<path id="XMLID_358_" d="M0 1.76923C0 2.74496 0.7935 3.53846 1.76923 3.53846C2.74496 3.53846 3.53846 2.74496 3.53846 1.76923C3.53846 0.7935 2.74496 0 1.76923 0C0.7935 0 0 0.7935 0 1.76923Z" fill="white"/>
<path id="XMLID_360_" d="M0 10.6154C0 11.5912 0.7935 12.3847 1.76923 12.3847C2.74496 12.3847 3.53846 11.5912 3.53846 10.6154C3.53846 9.63969 2.74496 8.84619 1.76923 8.84619C0.7935 8.84619 0 9.63969 0 10.6154Z" fill="white"/>
<path id="XMLID_362_" d="M0 19.4615C0 20.4372 0.7935 21.2307 1.76923 21.2307C2.74496 21.2307 3.53846 20.4372 3.53846 19.4615C3.53846 18.4858 2.74496 17.6923 1.76923 17.6923C0.7935 17.6923 0 18.4858 0 19.4615Z" fill="white"/>
</g>
</svg>
