<svg width="24" height="17" viewBox="0 0 24 17" fill="none" xmlns="http://www.w3.org/2000/svg">
<path id="Vector" d="M8.5613 7.00012L12 1.21724L2.61643 0.00553919C2.3588 -0.0275384 2.10905 0.105913 1.99655 0.343539L0.0658685 4.25126C-0.107569 4.60485 0.0765184 5.02307 0.442181 5.12573L7.83343 7.27501C8.13005 7.35371 8.41505 7.23965 8.5613 7.00012ZM23.9363 4.25126L22.0054 0.342779C21.8929 0.105152 21.6395 -0.0282228 21.3818 0.00504491L12 1.21724L15.4403 7.00012C15.581 7.23775 15.867 7.35223 16.1344 7.27619L23.5557 5.12766C23.925 5.01927 24.105 4.60105 23.9363 4.25126ZM15.9675 8.56656C15.33 8.56656 14.7345 8.22631 14.4113 7.68297L12 3.65054L9.59255 7.68069C9.2663 8.22818 8.6738 8.57036 8.0363 8.57036C7.86755 8.57036 7.6988 8.54675 7.53943 8.49953L2.40005 7.01533V13.7107C2.40005 14.2685 2.77502 14.7506 3.30943 14.8829L11.4132 16.9291C11.7975 17.0236 12.1962 17.0236 12.5757 16.9291L20.6907 14.8829C21.1913 14.7791 21.6 14.2962 21.6 13.7449V7.01533L16.4625 8.49432C16.305 8.53994 16.1363 8.56656 15.9675 8.56656Z" fill="#CF5700"/>
</svg>
