<svg width="27" height="27" viewBox="0 0 27 27" fill="none" xmlns="http://www.w3.org/2000/svg">
<g id="Group 2">
<path id="Vector" d="M26.0538 1.16706C26.0435 1.11697 26.0191 1.07086 25.9835 1.03414C25.9478 0.997426 25.9025 0.971622 25.8527 0.959757C22.5353 0.148663 14.8701 3.03903 10.7172 7.19023C9.97653 7.92494 9.30128 8.72282 8.69913 9.5748C7.41849 9.46151 6.13784 9.5561 5.04638 10.0319C1.96683 11.3873 1.0702 14.9239 0.820419 16.4453C0.806251 16.5286 0.811595 16.614 0.836031 16.6949C0.860468 16.7757 0.90333 16.8498 0.961247 16.9113C1.01916 16.9728 1.09056 17.02 1.16981 17.0492C1.24906 17.0784 1.33401 17.0889 1.41798 17.0797L6.36327 16.5342C6.3668 16.9071 6.3893 17.2795 6.43067 17.65C6.45556 17.9074 6.56979 18.1479 6.75352 18.3297L8.66854 20.2402C8.85059 20.4237 9.09098 20.5379 9.34823 20.5631C9.71672 20.6043 10.0871 20.6268 10.4578 20.6305L9.9152 25.5695C9.90615 25.6535 9.91667 25.7384 9.94593 25.8176C9.97519 25.8968 10.0224 25.9681 10.0839 26.026C10.1453 26.0839 10.2193 26.1268 10.3002 26.1512C10.381 26.1757 10.4663 26.1812 10.5496 26.1671C12.0681 25.9235 15.611 25.0269 16.9585 21.9474C17.4342 20.8559 17.5317 19.5815 17.4218 18.3071C18.2758 17.7049 19.0758 17.0295 19.8126 16.2884C23.9785 12.1434 26.8524 4.64933 26.0538 1.16706ZM15.6563 11.3437C15.2759 10.9635 15.0168 10.4791 14.9117 9.95166C14.8067 9.42423 14.8604 8.87749 15.0661 8.3806C15.2719 7.88371 15.6203 7.45899 16.0675 7.16017C16.5146 6.86135 17.0403 6.70186 17.5781 6.70186C18.1159 6.70186 18.6416 6.86135 19.0888 7.16017C19.5359 7.45899 19.8844 7.88371 20.0901 8.3806C20.2958 8.87749 20.3495 9.42423 20.2445 9.95166C20.1394 10.4791 19.8803 10.9635 19.4999 11.3437C19.2477 11.5963 18.9481 11.7967 18.6183 11.9334C18.2886 12.0702 17.9351 12.1405 17.5781 12.1405C17.2211 12.1405 16.8676 12.0702 16.5379 11.9334C16.2081 11.7967 15.9085 11.5963 15.6563 11.3437Z" fill="white"/>
<path id="Vector_2" d="M8.53827 21.624C8.22788 21.9349 7.73001 22.0561 7.13075 22.1598C5.78441 22.3892 4.59552 21.2258 4.83738 19.8647C4.9297 19.3487 5.20271 18.6254 5.37263 18.4555C5.40977 18.4191 5.43449 18.3719 5.44328 18.3206C5.45207 18.2693 5.44448 18.2166 5.4216 18.1699C5.39871 18.1232 5.36169 18.0848 5.31578 18.0604C5.26988 18.0359 5.21743 18.0265 5.16589 18.0335C4.413 18.1256 3.71257 18.467 3.17611 19.0032C1.84448 20.336 1.71874 25.2813 1.71874 25.2813C1.71874 25.2813 6.66687 25.1555 7.99849 23.8228C8.53638 23.2867 8.87816 22.5852 8.96874 21.8313C8.9897 21.5945 8.7014 21.4535 8.53827 21.624Z" fill="white"/>
</g>
</svg>
