<svg width="21" height="21" viewBox="0 0 21 21" fill="none" xmlns="http://www.w3.org/2000/svg">
<g id="Layer_2">
<g id="Group">
<path id="Vector" d="M16.3333 0H15.1667C14.4667 0 14 0.466667 14 1.16667C14 1.86667 14.4667 2.33333 15.1667 2.33333H16.3333C17.6167 2.33333 18.6667 3.38333 18.6667 4.66667V5.95C18.6667 6.65 19.1333 7.11667 19.8333 7.11667C20.5333 7.11667 21 6.65 21 5.95V4.66667C21 2.1 18.9 0 16.3333 0Z" fill="white"/>
<path id="Vector_2" d="M19.8333 14C19.1333 14 18.6667 14.4667 18.6667 15.1667V16.3333C18.6667 17.6167 17.6167 18.6667 16.3333 18.6667H15.1667C14.4667 18.6667 14 19.1333 14 19.8333C14 20.5333 14.4667 21 15.1667 21H16.3333C18.9 21 21 18.9 21 16.3333V15.1667C21 14.4667 20.5333 14 19.8333 14Z" fill="white"/>
<path id="Vector_3" d="M5.83333 18.6667H4.66667C3.38333 18.6667 2.33333 17.6167 2.33333 16.3333V15.1667C2.33333 14.4667 1.86667 14 1.16667 14C0.466667 14 0 14.4667 0 15.1667V16.3333C0 18.9 2.1 21 4.66667 21H5.83333C6.53333 21 7 20.5333 7 19.8333C7 19.1333 6.53333 18.6667 5.83333 18.6667Z" fill="white"/>
<path id="Vector_4" d="M1.16667 7C1.86667 7 2.33333 6.53333 2.33333 5.83333V4.66667C2.33333 3.38333 3.38333 2.33333 4.66667 2.33333H5.83333C6.53333 2.33333 7 1.86667 7 1.16667C7 0.466667 6.53333 0 5.83333 0H4.66667C2.1 0 0 2.1 0 4.66667V5.83333C0 6.41667 0.466667 7 1.16667 7Z" fill="white"/>
<path id="Vector_5" d="M19.8333 9.33337H1.16667C0.466667 9.33337 0 9.80004 0 10.5C0 11.2 0.466667 11.6667 1.16667 11.6667H19.8333C20.5333 11.6667 21 11.2 21 10.5C21 9.80004 20.5333 9.33337 19.8333 9.33337Z" fill="white"/>
</g>
</g>
</svg>
