<svg width="23" height="23" viewBox="0 0 23 23" fill="none" xmlns="http://www.w3.org/2000/svg">
<path id="Vector" d="M16.8008 14.0156C17.6992 12.6021 18.2263 10.925 18.2263 9.12214C18.2263 4.0849 14.1474 0 9.11615 0C4.07891 0 0 4.0849 0 9.12214C0 14.1594 4.07891 18.2443 9.11016 18.2443C10.937 18.2443 12.638 17.7052 14.0635 16.7828L14.4768 16.4953L20.9815 23L23 20.9456L16.5013 14.4409L16.8008 14.0156ZM14.2193 4.025C15.5789 5.38464 16.3276 7.19349 16.3276 9.11615C16.3276 11.0388 15.5789 12.8477 14.2193 14.2073C12.8596 15.5669 11.0508 16.3156 9.12812 16.3156C7.20547 16.3156 5.39661 15.5669 4.03698 14.2073C2.67734 12.8477 1.92865 11.0388 1.92865 9.11615C1.92865 7.19349 2.67734 5.38464 4.03698 4.025C5.39661 2.66536 7.20547 1.91667 9.12812 1.91667C11.0508 1.91667 12.8596 2.66536 14.2193 4.025Z" fill="white"/>
</svg>
